<?xml version="1.0" encoding="UTF-8"?>
<svg xmlns="http://www.w3.org/2000/svg" onmouseup="{ if(window.parent.document.onmouseup) window.parent.document.onmouseup(arguments[0]);}" xml:space="preserve" enable-background="new 0 0 127.2 127.1" viewBox="0 0 127.2 127.1" y="0px" x="0px" id="Layer_1" version="1.1" xmlns:xlink="http://www.w3.org/1999/xlink"><g><g><path data-cppathid="10000" d="M84.5,78.9c0,0,12.3-2.6,12.3-12.4c0-9.8-13-37.4-33-37.4c-19.9,0-32.6,29.5-32.6,37.4s9.3,12.4,12.4,12.4    c0,0-6.4-16.8,20.4-16.8C90.7,62.1,84.5,78.9,84.5,78.9z" fill="#4D4D4D"/><path data-cppathid="10001" d="M56.6,68.9c2.9-2.5,7.4-2.3,7.4-2.3s10.8-0.6,10.8,9.2c0,9.8,0.1,14.3,0.1,14.3s-0.7,8.1-10.8,8.1    c-10.1,0-10.5-8.1-10.5-8.1l0-14.5C53.6,75.7,53.7,71.4,56.6,68.9z" fill="#4D4D4D"/></g><path data-cppathid="10002" d="M0,63.6C0,28.4,28.5,0,63.6,0l0,0c35.1,0,63.6,28.4,63.6,63.6l0,0c0,35.1-28.5,63.6-63.6,63.6l0,0   C28.5,127.1,0,98.7,0,63.6L0,63.6z M11,63.6c0,29,23.5,52.5,52.6,52.6l0,0c29,0,52.5-23.5,52.5-52.6l0,0   c-0.1-29-23.5-52.5-52.5-52.6l0,0C34.6,11.1,11.1,34.5,11,63.6L11,63.6z" fill="#4D4D4D"/></g><g/><g/><g/><g/><g/><g/></svg>