<?xml version="1.0" encoding="UTF-8"?>
<svg xmlns="http://www.w3.org/2000/svg" onmouseup="{ if(window.parent.document.onmouseup) window.parent.document.onmouseup(arguments[0]);}" xml:space="preserve" enable-background="new 0 0 271.3 109.5" viewBox="0 0 271.3 109.5" y="0px" x="0px" id="Layer_1" version="1.1" xmlns:xlink="http://www.w3.org/1999/xlink"><g><polyline data-cppathid="10000" points="30.2,76.1 64.7,76.1 64.7,63.1 17.7,63.1 17.3,63.1 17.3,109.5 29.8,109.5 29.8,76.3  "/><path data-cppathid="10001" d="M17.3,17.6l94.3,0l0.2-0.1c20.4,0.2,36.8,16.8,36.8,37.2c0,20.4-16.5,37-36.9,37.2l-0.3,0l-23.1,0V44.8h13V79l1.1,0h9   l0.5,0c13.2-0.3,23.8-11,23.8-24.3c0-13.3-10.7-24.1-24-24.3l-0.3,0H30.2l-0.3,0v14.2l0,0.3l34.8,0l0,13l-47.3,0l-0.1,0L17.3,17.6"/><polyline data-cppathid="10002" points="206.2,0.5 263.1,96.9 271.3,83.4 220.8,0.5 206.2,0.5  "/><polyline data-cppathid="10003" points="147.7,109.5 206.1,11.8 254.3,91.8 187.9,91.8 187.9,79.3 231,79.3 206.1,37.7 165.3,109.5 147.7,109.5  "/><polyline data-cppathid="10004" points="263.1,96.9 187.9,96.9 187.9,109.5 255.7,109.5 255.8,109.2 263.1,96.9  "/><path data-cppathid="10005" d="M69.8,96.5l0.1-51.6h13v51.6l0,0.1h28.5l0.3,0c23.1-0.2,41.7-18.9,41.7-42c0-23.1-18.6-41.8-41.6-42l-0.4,0l-98.8,0l0,96.9   H0L0,0l111.4,0l0.5,0c26.5,0.2,48.5,18.7,53.2,43.9l26.4-43.4h14.6l-45.3,76.2l-4.4,7.5c-9.8,14.3-25.9,25-44.5,25.2l-0.5,0H69.8   V96.5"/></g><g/><g/><g/><g/><g/><g/></svg>